# xmcd
#
# Track frame offsets: 
#        150
#        3542
#        21000
#        38055
#        55900
#        74437
#        92420
#        108037
#        123800
#        145157
#
# Disc length: 2157 seconds
#
# Revision: 1
# Processed by: cddbd v1.5.2PL0 Copyright (c) Steve Scherf et al.
# Submitted via: ExactAudioCopy v1.1
#
DISCID=76086b0a
DTITLE=阿弟仔 - 我沒讀書
DYEAR=1999
DGENRE=Rock
TTITLE0=Intro
TTITLE1=我沒讀書
TTITLE2=你在叨位
TTITLE3=我在這
TTITLE4=找無人愛
TTITLE5=我是阿弟仔
TTITLE6=心愛的歐拖賣
TTITLE7=甘願為你苦
TTITLE8=無知影人
TTITLE9=醉生夢死
EXTD=
EXTT0=
EXTT1=
EXTT2=
EXTT3=
EXTT4=
EXTT5=
EXTT6=
EXTT7=
EXTT8=
EXTT9=
PLAYORDER=
